<svg xmlns="http://www.w3.org/2000/svg" viewBox="0 0 1200 780">
  <rect width="1200" height="780" fill="#163638"/>
  <rect x="120" y="120" width="420" height="520" rx="10" fill="#ead7a5"/>
  <rect x="660" y="120" width="420" height="520" rx="10" fill="#f1e7c8"/>
  <g stroke="#7b6842" stroke-width="2">
    <line x1="170" y1="210" x2="500" y2="210"/>
    <line x1="170" y1="290" x2="500" y2="290"/>
    <line x1="170" y1="370" x2="500" y2="370"/>
    <line x1="170" y1="450" x2="500" y2="450"/>
    <line x1="170" y1="530" x2="500" y2="530"/>
    <line x1="710" y1="210" x2="1040" y2="210"/>
    <line x1="710" y1="290" x2="1040" y2="290"/>
    <line x1="710" y1="370" x2="1040" y2="370"/>
    <line x1="710" y1="450" x2="1040" y2="450"/>
    <line x1="710" y1="530" x2="1040" y2="530"/>
  </g>
  <path d="M565 390h90" stroke="#a63d2c" stroke-width="12" stroke-linecap="round"/>
  <path d="M610 345l45 45-45 45" fill="none" stroke="#a63d2c" stroke-width="12" stroke-linecap="round" stroke-linejoin="round"/>
  <rect x="760" y="350" width="170" height="44" fill="#a53b2c" opacity=".2"/>
</svg>
