<svg xmlns="http://www.w3.org/2000/svg" viewBox="0 0 1200 780">
  <defs>
    <linearGradient id="paper" x1="0" x2="1">
      <stop offset="0" stop-color="#efe2bb"/>
      <stop offset="1" stop-color="#dac792"/>
    </linearGradient>
  </defs>
  <rect width="1200" height="780" fill="#244648"/>
  <rect x="120" y="80" width="720" height="560" rx="8" fill="url(#paper)" stroke="#4d3c28" stroke-width="3"/>
  <rect x="870" y="140" width="190" height="260" rx="10" fill="#8d2a1f" opacity=".88"/>
  <rect x="900" y="180" width="130" height="130" rx="8" fill="#ddb98e" opacity=".85"/>
  <g stroke="#7e6b46" stroke-width="2">
    <line x1="170" y1="170" x2="790" y2="170"/>
    <line x1="170" y1="250" x2="790" y2="250"/>
    <line x1="170" y1="330" x2="790" y2="330"/>
    <line x1="170" y1="410" x2="790" y2="410"/>
    <line x1="170" y1="490" x2="790" y2="490"/>
    <line x1="280" y1="140" x2="280" y2="590"/>
  </g>
  <rect x="600" y="430" width="140" height="70" rx="6" fill="#a33a2a" opacity=".18"/>
  <circle cx="870" cy="500" r="70" fill="none" stroke="#b0412f" stroke-width="10" opacity=".55"/>
  <circle cx="870" cy="500" r="45" fill="none" stroke="#b0412f" stroke-width="4" opacity=".55"/>
  <path d="M850 520c36-40 58-73 76-96" fill="none" stroke="#b0412f" stroke-width="6" stroke-linecap="round" opacity=".55"/>
</svg>
